<?xml version="1.0" encoding="UTF-8"?><svg id="Layer_1" xmlns="http://www.w3.org/2000/svg" viewBox="0 0 407.98 407.98"><defs><style>.cls-1,.cls-2{stroke:#fff;stroke-miterlimit:10;stroke-width:.75px;}.cls-2{fill:#fff;}</style></defs><circle class="cls-1" cx="203.99" cy="203.99" r="203.61"/><path class="cls-2" d="m334.9,222.94H116.88v-10.2c0-15.28,12.43-27.71,27.71-27.71h110.18c20.04,0,36.34-16.24,36.34-36.2s-16.3-36.2-36.34-36.2H88.9c-28.76,0-52.16,23.4-52.16,52.16v30.44c0,28.76,23.4,52.16,52.16,52.16h3.7c2.15,26.8,24.64,47.95,51.99,47.95h190.31c20.04,0,36.34-16.24,36.34-36.2s-16.3-36.2-36.34-36.2Zm-273.71-27.71v-30.44c0-15.28,12.43-27.71,27.71-27.71h165.87c6.56,0,11.89,5.27,11.89,11.75s-5.33,11.75-11.89,11.75h-110.18c-28.76,0-52.16,23.4-52.16,52.16v10.2h-3.53c-15.28,0-27.71-12.43-27.71-27.71Zm273.71,75.66h-190.31c-13.85,0-25.36-10.22-27.39-23.51h217.7c6.56,0,11.89,5.27,11.89,11.75s-5.33,11.75-11.89,11.75Z"/></svg>