<?xml version="1.0" encoding="UTF-8"?><svg id="Layer_1" xmlns="http://www.w3.org/2000/svg" viewBox="0 0 726.31 512.27"><defs><style>.cls-1{fill:#fff;stroke-width:0px;}</style></defs><path class="cls-1" d="m32.15,512.27c-4.76,0-9.07-.69-12.95-2.06-3.87-1.37-7.18-3.33-9.92-5.87-2.74-2.54-4.86-5.58-6.35-9.14-1.49-3.55-2.24-7.5-2.24-11.86v-26.14c0-4.36.75-8.31,2.24-11.86,1.49-3.55,3.61-6.59,6.35-9.14,2.74-2.54,6.05-4.5,9.92-5.87,3.87-1.37,8.19-2.06,12.95-2.06s9.05.69,12.89,2.06c3.83,1.37,7.12,3.33,9.86,5.87,2.74,2.54,4.86,5.59,6.35,9.14,1.49,3.55,2.24,7.5,2.24,11.86v3.02h-15.25v-2.66c0-4.6-1.47-8.27-4.42-11.01-2.95-2.74-6.84-4.11-11.68-4.11s-8.85,1.37-11.8,4.11c-2.95,2.74-4.42,6.41-4.42,11.01v25.41c0,4.6,1.47,8.27,4.42,11.01,2.94,2.74,6.88,4.11,11.8,4.11s8.73-1.37,11.68-4.11c2.94-2.74,4.42-6.41,4.42-11.01v-2.66h15.25v3.03c0,4.36-.75,8.31-2.24,11.86-1.49,3.55-3.61,6.59-6.35,9.14-2.74,2.54-6.03,4.5-9.86,5.87-3.83,1.37-8.13,2.06-12.89,2.06Z"/><path class="cls-1" d="m83.81,441.37c-2.74,0-4.92-.81-6.53-2.42-1.61-1.61-2.42-3.71-2.42-6.29s.81-4.64,2.42-6.17c1.61-1.53,3.79-2.3,6.53-2.3s4.8.77,6.41,2.3c1.61,1.53,2.42,3.59,2.42,6.17s-.81,4.68-2.42,6.29c-1.62,1.61-3.75,2.42-6.41,2.42Zm-7.26,8.95h14.52v60.5h-14.52v-60.5Z"/><path class="cls-1" d="m138.99,448.87v14.76h-2.66c-5.24,0-9.3,1.45-12.16,4.36-2.86,2.9-4.3,6.41-4.3,10.53v32.31h-14.52v-60.5h14.52v10.53h.97c1.13-3.79,3.07-6.73,5.81-8.83,2.74-2.1,6.17-3.15,10.29-3.15h2.06Z"/><path class="cls-1" d="m170.33,512.27c-3.87,0-7.36-.57-10.47-1.69-3.11-1.13-5.79-2.72-8.05-4.78-2.26-2.06-3.99-4.54-5.2-7.44s-1.82-6.13-1.82-9.68v-16.21c0-3.55.61-6.78,1.82-9.68s2.94-5.38,5.2-7.44c2.26-2.06,4.94-3.65,8.05-4.78,3.1-1.13,6.59-1.69,10.47-1.69s7.38.57,10.53,1.69c3.15,1.13,5.85,2.72,8.11,4.78,2.26,2.06,3.99,4.54,5.2,7.44s1.82,6.13,1.82,9.68v1.45h-14.52v-1.45c0-3.06-1.01-5.52-3.02-7.38-2.02-1.85-4.72-2.78-8.11-2.78s-6.07.93-8.05,2.78c-1.98,1.86-2.96,4.32-2.96,7.38v16.21c0,3.07.99,5.53,2.96,7.38,1.98,1.86,4.66,2.78,8.05,2.78s6.09-.93,8.11-2.78c2.02-1.86,3.02-4.31,3.02-7.38v-1.45h14.52v1.45c0,3.55-.61,6.78-1.82,9.68s-2.95,5.38-5.2,7.44c-2.26,2.06-4.96,3.65-8.11,4.78-3.15,1.13-6.66,1.69-10.53,1.69Z"/><path class="cls-1" d="m256.48,450.32v60.5h-14.52v-8.71h-.85c-1.13,2.99-3.11,5.43-5.93,7.32-2.82,1.89-6.29,2.84-10.41,2.84-5.49,0-9.9-1.63-13.25-4.9-3.35-3.27-5.02-7.64-5.02-13.13v-43.92h14.52v38.57c0,2.99.91,5.4,2.72,7.22,1.82,1.82,4.25,2.73,7.32,2.73,3.31,0,5.95-.95,7.92-2.85,1.98-1.9,2.96-4.23,2.96-6.97v-38.7h14.52Z"/><path class="cls-1" d="m278.14,441.37c-2.74,0-4.92-.81-6.53-2.42-1.61-1.61-2.42-3.71-2.42-6.29s.81-4.64,2.42-6.17c1.61-1.53,3.79-2.3,6.53-2.3s4.8.77,6.41,2.3c1.61,1.53,2.42,3.59,2.42,6.17s-.81,4.68-2.42,6.29c-1.62,1.61-3.75,2.42-6.41,2.42Zm-7.26,8.95h14.52v60.5h-14.52v-60.5Z"/><path class="cls-1" d="m319.64,463.27v27.22c0,2.18.64,3.87,1.94,5.08,1.29,1.21,2.98,1.82,5.08,1.82h6.29v13.43h-10.04c-5.32,0-9.62-1.49-12.89-4.48-3.27-2.98-4.9-7.02-4.9-12.1v-30.98h-10.29v-12.95h6.9c2.9,0,4.36-1.49,4.36-4.48v-11.25h13.55v15.73h14.04v12.95h-14.04Z"/><path class="cls-1" d="m400.83,512.27c-4.76,0-9.07-.69-12.95-2.06-3.87-1.37-7.18-3.33-9.92-5.87-2.74-2.54-4.86-5.58-6.35-9.14-1.49-3.55-2.24-7.5-2.24-11.86v-26.14c0-4.36.75-8.31,2.24-11.86,1.49-3.55,3.61-6.59,6.35-9.14,2.74-2.54,6.05-4.5,9.92-5.87,3.87-1.37,8.19-2.06,12.95-2.06s9.05.69,12.89,2.06c3.83,1.37,7.12,3.33,9.86,5.87,2.74,2.54,4.86,5.59,6.35,9.14,1.49,3.55,2.24,7.5,2.24,11.86v3.02h-15.25v-2.66c0-4.6-1.47-8.27-4.42-11.01-2.95-2.74-6.84-4.11-11.68-4.11s-8.85,1.37-11.8,4.11c-2.95,2.74-4.42,6.41-4.42,11.01v25.41c0,4.6,1.47,8.27,4.42,11.01,2.94,2.74,6.88,4.11,11.8,4.11s8.73-1.37,11.68-4.11c2.94-2.74,4.42-6.41,4.42-11.01v-2.66h15.25v3.03c0,4.36-.75,8.31-2.24,11.86-1.49,3.55-3.61,6.59-6.35,9.14-2.74,2.54-6.03,4.5-9.86,5.87-3.83,1.37-8.13,2.06-12.89,2.06Z"/><path class="cls-1" d="m477.54,448.87c5.57,0,10.08,1.65,13.55,4.96,3.47,3.31,5.2,7.74,5.2,13.31v43.68h-14.52v-38.33c0-3.07-.97-5.54-2.9-7.4-1.94-1.86-4.52-2.79-7.74-2.79-3.47,0-6.25.99-8.35,2.97-2.1,1.98-3.15,4.35-3.15,7.1v38.45h-14.52v-84.7h14.52v33.15h.97c1.13-3.06,3.21-5.57,6.23-7.5,3.03-1.94,6.59-2.9,10.71-2.9Z"/><path class="cls-1" d="m558.97,450.32v60.5h-14.52v-8.71h-.85c-1.13,2.99-3.11,5.43-5.93,7.32-2.82,1.89-6.29,2.84-10.41,2.84-5.49,0-9.9-1.63-13.25-4.9-3.35-3.27-5.02-7.64-5.02-13.13v-43.92h14.52v38.57c0,2.99.91,5.4,2.72,7.22,1.82,1.82,4.25,2.73,7.32,2.73,3.31,0,5.95-.95,7.92-2.85,1.98-1.9,2.96-4.23,2.96-6.97v-38.7h14.52Z"/><path class="cls-1" d="m606.89,448.87v14.76h-2.66c-5.24,0-9.3,1.45-12.16,4.36-2.86,2.9-4.3,6.41-4.3,10.53v32.31h-14.52v-60.5h14.52v10.53h.97c1.13-3.79,3.07-6.73,5.81-8.83,2.74-2.1,6.17-3.15,10.29-3.15h2.06Z"/><path class="cls-1" d="m638.22,512.27c-3.87,0-7.36-.57-10.47-1.69-3.11-1.13-5.79-2.72-8.05-4.78-2.26-2.06-3.99-4.54-5.2-7.44s-1.82-6.13-1.82-9.68v-16.21c0-3.55.61-6.78,1.82-9.68s2.94-5.38,5.2-7.44c2.26-2.06,4.94-3.65,8.05-4.78,3.1-1.13,6.59-1.69,10.47-1.69s7.38.57,10.53,1.69c3.15,1.13,5.85,2.72,8.11,4.78,2.26,2.06,3.99,4.54,5.2,7.44s1.82,6.13,1.82,9.68v1.45h-14.52v-1.45c0-3.06-1.01-5.52-3.02-7.38-2.02-1.85-4.72-2.78-8.11-2.78s-6.07.93-8.05,2.78c-1.98,1.86-2.96,4.32-2.96,7.38v16.21c0,3.07.99,5.53,2.96,7.38,1.98,1.86,4.66,2.78,8.05,2.78s6.09-.93,8.11-2.78c2.02-1.86,3.02-4.31,3.02-7.38v-1.45h14.52v1.45c0,3.55-.61,6.78-1.82,9.68s-2.95,5.38-5.2,7.44c-2.26,2.06-4.96,3.65-8.11,4.78-3.15,1.13-6.66,1.69-10.53,1.69Z"/><path class="cls-1" d="m707.56,448.87c5.57,0,10.08,1.65,13.55,4.96,3.47,3.31,5.2,7.74,5.2,13.31v43.68h-14.52v-38.33c0-3.07-.97-5.54-2.9-7.4-1.94-1.86-4.52-2.79-7.74-2.79-3.47,0-6.25.99-8.35,2.97-2.1,1.98-3.15,4.35-3.15,7.1v38.45h-14.52v-84.7h14.52v33.15h.97c1.13-3.06,3.21-5.57,6.23-7.5,3.03-1.94,6.59-2.9,10.71-2.9Z"/><path class="cls-1" d="m646.4,239.14H173.74v-22.1c0-33.12,26.95-60.07,60.07-60.07h238.87c43.44,0,78.78-35.21,78.78-78.48S516.12,0,472.68,0H113.07C50.72,0,0,50.72,0,113.07v65.99c0,62.35,50.72,113.07,113.07,113.07h8.03c4.65,58.1,53.42,103.96,112.71,103.96h412.59c43.44,0,78.78-35.21,78.78-78.48s-35.34-78.48-78.78-78.48ZM53,179.07v-65.99c0-33.12,26.95-60.07,60.07-60.07h359.61c14.21,0,25.78,11.43,25.78,25.48s-11.57,25.48-25.78,25.48h-238.87c-62.35,0-113.07,50.72-113.07,113.07v22.1h-7.66c-33.12,0-60.07-26.95-60.07-60.07Zm593.4,164.04H233.81c-30.03,0-54.98-22.15-59.38-50.96h471.98c14.21,0,25.78,11.43,25.78,25.48s-11.57,25.48-25.78,25.48Z"/></svg>