<?xml version="1.0" encoding="UTF-8"?><svg id="Layer_1" xmlns="http://www.w3.org/2000/svg" viewBox="0 0 725.18 396.1"><defs><style>.cls-1{fill:#fff;stroke-width:0px;}</style></defs><path class="cls-1" d="m646.4,239.14H173.74v-22.1c0-33.12,26.95-60.07,60.07-60.07h238.87c43.44,0,78.78-35.21,78.78-78.48S516.12,0,472.68,0H113.07C50.72,0,0,50.72,0,113.07v65.99c0,62.35,50.72,113.07,113.07,113.07h8.03c4.65,58.1,53.42,103.96,112.71,103.96h412.59c43.44,0,78.78-35.21,78.78-78.48s-35.34-78.48-78.78-78.48ZM53,179.07v-65.99c0-33.12,26.95-60.07,60.07-60.07h359.61c14.21,0,25.78,11.43,25.78,25.48s-11.57,25.48-25.78,25.48h-238.87c-62.35,0-113.07,50.72-113.07,113.07v22.1h-7.66c-33.12,0-60.07-26.95-60.07-60.07Zm593.4,164.04H233.81c-30.03,0-54.98-22.15-59.38-50.96h471.98c14.21,0,25.78,11.43,25.78,25.48s-11.57,25.48-25.78,25.48Z"/></svg>