<?xml version="1.0" encoding="UTF-8"?><svg id="Layer_1" xmlns="http://www.w3.org/2000/svg" viewBox="0 0 630.31 206.38"><defs><style>.cls-1{fill:#fff;stroke-width:0px;}</style></defs><path class="cls-1" d="m343.54,0h31.24v74.84h.55c8.5-14.17,26.31-22.96,42.2-22.96,44.66,0,66.32,35.16,66.32,77.97,0,39.39-19.18,76.53-61.12,76.53-19.18,0-39.74-4.81-49.06-24.09h-.54v20.14h-29.6V0h0Zm69.88,77.39c-26.3,0-39.74,20.7-39.74,51.88,0,29.48,14.53,51.6,39.74,51.6,28.51,0,39.19-26.08,39.19-51.6-.02-26.64-13.45-51.88-39.2-51.88"/><path class="cls-1" d="m599.07,104.9c-2.47-17.86-15.07-27.51-32.34-27.51-16.18,0-38.92,8.79-38.92,53.3,0,24.38,10.41,50.19,37.55,50.19,18.08,0,30.69-12.49,33.71-33.47h31.24c-5.76,37.99-28.5,58.97-64.95,58.97-44.4,0-68.79-32.6-68.79-75.69s23.29-78.81,69.88-78.81c32.88,0,60.85,17.01,63.85,53.01h-31.24Z"/><polygon class="cls-1" points="234.32 201.99 0 201.99 109.42 0 343.74 0 234.32 201.99"/></svg>